<?xml version="1.0" encoding="utf-8"?>
<svg viewBox="0 0 256 256" width="256px" height="256px" xmlns="http://www.w3.org/2000/svg" xmlns:bx="https://boxy-svg.com">
  <defs>
    <bx:grid x="0" y="0" width="4" height="4"/>
  </defs>
  <path style="fill: rgb(255, 255, 255);" d="M 215.695 231.815 C 208 232 208 216 216 216 L 214.995 27.857 L 36 40 L 44 236 L 215.695 231.815 Z">
    <title>Paper</title>
  </path>
  <path style="fill: rgb(255, 0, 0);" d="M 216 240 L 64 240 C 40 240 32 240 32 216 L 32 48 C 32 32 40 16 56 16 L 216 16 C 224 16 224 16 224 24 L 224 208 C 224 216 224 216 216 216 L 52 216 C 36 216 36 232 52 232 L 216 232 C 220 232 224 232 224 236 C 224 240 220 240 216 240 Z M 136 44 C 96.236 44 64 76.236 64 116 C 64 155.765 96.236 188 136 188 C 175.765 188 208 155.765 208 116 C 208 76.236 175.765 44 136 44 Z">
    <title>Book</title>
  </path>
  <g style="" transform="matrix(0.642857, 0, 0, 0.642857, 45.714317, 37.714317)">
    <title>CircleIcon</title>
    <path d="M 227.555 121.778 C 227.555 172.103 202.164 204.824 152.888 208.889 L 152.888 121.778 L 190.222 121.778 L 190.222 96.889 L 152.888 96.889 L 152.888 59.556 L 128 59.556 L 128 96.889 L 90.666 96.889 L 90.666 121.778 L 128 121.778 L 128 208.889 C 78.884 204.664 53.333 171.989 53.333 121.778 C 53.333 68.759 87.425 34.667 140.444 34.667 C 193.463 34.667 227.555 68.759 227.555 121.778 Z" style="stroke: rgb(0, 0, 0); stroke-opacity: 0; fill: rgb(255, 0, 0);"/>
  </g>
</svg>